<svg width="40" height="40" viewBox="0 0 40 40" fill="none" xmlns="http://www.w3.org/2000/svg">
<path d="M30.2271 3.63647C31.9175 3.63647 33.3628 4.23662 34.5631 5.4369C35.7634 6.63718 36.3635 8.0825 36.3635 9.77284V30.2274C36.3635 31.9177 35.7634 33.363 34.5631 34.5633C33.3628 35.7636 31.9175 36.3637 30.2271 36.3637H26.2215V23.6862H30.4615L31.1007 18.743H26.2215V15.5896C26.2215 14.7941 26.3884 14.1976 26.7222 13.7998C27.056 13.4021 27.7058 13.2032 28.6717 13.2032L31.2712 13.1819V8.77142C30.3763 8.64358 29.1121 8.57966 27.4786 8.57966C25.5467 8.57966 24.002 9.14784 22.8443 10.2842C21.6867 11.4206 21.1078 13.0257 21.1078 15.0995V18.743H16.8465V23.6862H21.1078V36.3637H9.77259C8.08225 36.3637 6.63694 35.7636 5.43666 34.5633C4.23637 33.363 3.63623 31.9177 3.63623 30.2274V9.77284C3.63623 8.0825 4.23637 6.63718 5.43666 5.4369C6.63694 4.23662 8.08225 3.63647 9.77259 3.63647H30.2271Z" fill="#DC6022"/>
</svg>
