<svg width="40" height="40" viewBox="0 0 40 40" fill="none" xmlns="http://www.w3.org/2000/svg">
<path d="M19.9999 15.8666C19.1824 15.8666 18.3833 16.109 17.7036 16.5632C17.0238 17.0174 16.4941 17.6629 16.1812 18.4182C15.8684 19.1734 15.7865 20.0045 15.946 20.8063C16.1055 21.6081 16.4992 22.3446 17.0772 22.9226C17.6553 23.5007 18.3918 23.8943 19.1935 24.0538C19.9953 24.2133 20.8264 24.1315 21.5817 23.8186C22.3369 23.5058 22.9825 22.976 23.4367 22.2963C23.8908 21.6166 24.1333 20.8174 24.1333 19.9999C24.1333 19.4571 24.0263 18.9196 23.8186 18.4182C23.6109 17.9167 23.3064 17.461 22.9226 17.0772C22.5388 16.6934 22.0832 16.3889 21.5817 16.1812C21.0802 15.9735 20.5427 15.8666 19.9999 15.8666ZM36.5499 11.7833C36.5411 10.4962 36.3041 9.22087 35.8499 8.01658C35.5154 7.13535 34.9978 6.33507 34.3313 5.66856C33.6648 5.00205 32.8645 4.48445 31.9833 4.14992C30.779 3.69569 29.5037 3.45869 28.2166 3.44992C26.0666 3.33325 25.4333 3.33325 19.9999 3.33325C14.5666 3.33325 13.9333 3.33325 11.7833 3.44992C10.4962 3.45869 9.22087 3.69569 8.01658 4.14992C7.13535 4.48445 6.33507 5.00205 5.66856 5.66856C5.00205 6.33507 4.48445 7.13535 4.14992 8.01658C3.69569 9.22087 3.45869 10.4962 3.44992 11.7833C3.33325 13.9333 3.33325 14.5666 3.33325 19.9999C3.33325 25.4333 3.33325 26.0666 3.44992 28.2166C3.46786 29.5082 3.70454 30.7874 4.14992 31.9999C4.48297 32.8771 5.00013 33.6728 5.66659 34.3333C6.33024 35.0038 7.13223 35.5214 8.01658 35.8499C9.22087 36.3041 10.4962 36.5411 11.7833 36.5499C13.9333 36.6666 14.5666 36.6666 19.9999 36.6666C25.4333 36.6666 26.0666 36.6666 28.2166 36.5499C29.5037 36.5411 30.779 36.3041 31.9833 35.8499C32.8676 35.5214 33.6696 35.0038 34.3333 34.3333C34.9997 33.6728 35.5169 32.8771 35.8499 31.9999C36.3037 30.7897 36.5407 29.509 36.5499 28.2166C36.6666 26.0666 36.6666 25.4333 36.6666 19.9999C36.6666 14.5666 36.6666 13.9333 36.5499 11.7833ZM32.3166 25.1166C32.2631 26.1451 32.0436 27.1582 31.6666 28.1166C31.343 28.9161 30.862 29.6423 30.2522 30.2522C29.6423 30.862 28.9161 31.343 28.1166 31.6666C27.1491 32.0226 26.1304 32.2196 25.0999 32.2499H14.8999C13.8695 32.2196 12.8507 32.0226 11.8833 31.6666C11.0568 31.3594 10.3104 30.8695 9.69992 30.2332C9.09603 29.6353 8.62966 28.913 8.33325 28.1166C7.97585 27.1501 7.78426 26.1302 7.76658 25.0999V14.8999C7.78426 13.8696 7.97585 12.8497 8.33325 11.8833C8.64039 11.0568 9.13038 10.3104 9.76659 9.69992C10.3671 9.09929 11.0887 8.63341 11.8833 8.33325C12.8507 7.97726 13.8695 7.78027 14.8999 7.74992H25.0999C26.1304 7.78027 27.1491 7.97726 28.1166 8.33325C28.9431 8.64039 29.6895 9.13038 30.2999 9.76659C30.9038 10.3645 31.3702 11.0868 31.6666 11.8833C32.0226 12.8507 32.2196 13.8695 32.2499 14.8999V19.9999C32.2499 23.4333 32.3666 23.7833 32.3166 25.0999V25.1166ZM29.6499 12.7166C29.4515 12.1782 29.1386 11.6893 28.7329 11.2836C28.3272 10.8779 27.8383 10.565 27.2999 10.3666C26.5607 10.1104 25.7822 9.98624 24.9999 9.99992H14.9999C14.2137 10.0076 13.435 10.1543 12.6999 10.4333C12.1698 10.6227 11.6861 10.9228 11.2809 11.3136C10.8757 11.7044 10.5584 12.177 10.3499 12.6999C10.1079 13.4422 9.98963 14.2192 9.99992 14.9999V24.9999C10.0164 25.7852 10.1629 26.5624 10.4333 27.2999C10.6317 27.8383 10.9446 28.3272 11.3503 28.7329C11.756 29.1386 12.2449 29.4515 12.7833 29.6499C13.4944 29.9114 14.2427 30.0577 14.9999 30.0833H24.9999C25.7861 30.0756 26.5648 29.9289 27.2999 29.6499C27.8383 29.4515 28.3272 29.1386 28.7329 28.7329C29.1386 28.3272 29.4515 27.8383 29.6499 27.2999C29.9289 26.5648 30.0756 25.7861 30.0833 24.9999V14.9999C30.0837 14.2129 29.9368 13.4328 29.6499 12.6999V12.7166ZM19.9999 26.3666C19.1646 26.3666 18.3375 26.2018 17.566 25.8816C16.7945 25.5615 16.0938 25.0922 15.5039 24.5008C14.914 23.9094 14.4466 23.2074 14.1285 22.4351C13.8104 21.6627 13.6477 20.8352 13.6499 19.9999C13.6499 18.74 14.0237 17.5084 14.7241 16.4611C15.4244 15.4137 16.4197 14.5977 17.584 14.1163C18.7484 13.6349 20.0293 13.5098 21.2648 13.7568C22.5003 14.0038 23.6347 14.6119 24.5244 15.5039C25.4141 16.396 26.0192 17.532 26.2629 18.7681C26.5067 20.0042 26.3783 21.2848 25.8938 22.4479C25.4094 23.611 24.5908 24.6041 23.5416 25.3017C22.4924 25.9993 21.2598 26.3699 19.9999 26.3666ZM26.6666 14.8833C26.2982 14.8443 25.9572 14.6703 25.7094 14.3949C25.4616 14.1195 25.3245 13.7621 25.3245 13.3916C25.3245 13.0211 25.4616 12.6637 25.7094 12.3883C25.9572 12.1129 26.2982 11.9389 26.6666 11.8999C27.035 11.9389 27.376 12.1129 27.6238 12.3883C27.8716 12.6637 28.0087 13.0211 28.0087 13.3916C28.0087 13.7621 27.8716 14.1195 27.6238 14.3949C27.376 14.6703 27.035 14.8443 26.6666 14.8833Z" fill="#DC6022"/>
</svg>
