<svg width="40" height="40" viewBox="0 0 40 40" fill="none" xmlns="http://www.w3.org/2000/svg">
<path d="M31.8324 10.375C31.5946 10.2532 31.363 10.1197 31.1386 9.97501C30.4861 9.54772 29.8878 9.04426 29.3567 8.47545C28.0278 6.96934 27.5315 5.44142 27.3487 4.37165H27.356C27.2033 3.4837 27.2665 2.90918 27.276 2.90918H21.2233V26.092C21.2233 26.4033 21.2233 26.7109 21.2101 27.0149C21.2101 27.0527 21.2064 27.0876 21.2042 27.1283C21.2042 27.1451 21.2042 27.1625 21.2006 27.18V27.1931C21.1368 28.0249 20.8676 28.8284 20.4167 29.5329C19.9658 30.2375 19.347 30.8215 18.6147 31.2336C17.8516 31.6636 16.9884 31.8892 16.1104 31.8881C13.2904 31.8881 11.0048 29.6104 11.0048 26.7974C11.0048 23.9845 13.2904 21.7068 16.1104 21.7068C16.6442 21.7063 17.1748 21.7895 17.6823 21.9533L17.6897 15.8489C16.1489 15.6518 14.5835 15.773 13.0924 16.2051C11.6013 16.6372 10.2168 17.3707 9.02618 18.3593C7.98294 19.2572 7.10588 20.3285 6.43448 21.525C6.17898 21.9613 5.21498 23.7147 5.09824 26.5604C5.02483 28.1756 5.51453 29.8489 5.74801 30.5405V30.5551C5.89484 30.9623 6.46384 32.3521 7.39113 33.5237C8.13886 34.4634 9.02228 35.289 10.0129 35.9737V35.9592L10.0276 35.9737C12.9578 37.946 16.2066 37.8165 16.2066 37.8165C16.769 37.794 18.6529 37.8165 20.7924 36.8122C23.1653 35.6988 24.5162 34.04 24.5162 34.04C25.3792 33.0488 26.0655 31.9193 26.5455 30.6998C27.0932 29.2737 27.276 27.5632 27.276 26.8796V14.5806C27.3494 14.6242 28.3274 15.2649 28.3274 15.2649C28.3274 15.2649 29.7363 16.1594 31.9345 16.7419C33.5115 17.1565 35.6363 17.2437 35.6363 17.2437V11.292C34.8918 11.372 33.3801 11.1393 31.8324 10.375V10.375Z" fill="#DC6022"/>
</svg>
