<svg width="47" height="51" viewBox="0 0 47 51" fill="none" xmlns="http://www.w3.org/2000/svg">
<path fill-rule="evenodd" clip-rule="evenodd" d="M11.9349 48.4102C7.44512 46.4779 3.62817 43.2554 0.966727 39.1502C1.52817 40.0162 3.19725 40.835 5.14632 41.5366L7.18684 37.0425L0.374567 17.8723L0.0399931 16.9308L0.994114 17.227L7.31656 19.1901L3.955 10.607L4.88604 10.2418L8.53933 19.5697L12.0601 20.6629L7.6304 13.602L8.47746 13.0701L13.5264 21.1182L14.3728 21.3809L22.3948 4.11738C18.0622 3.35362 10.5121 3.43085 8.23142 4.91445C12.3297 2.24848 17.1251 0.859726 22.0113 0.923799C26.8975 0.987873 31.655 2.5019 35.6822 5.27441C39.7094 8.04693 42.8254 11.9534 44.6362 16.4999C46.447 21.0463 46.8712 26.0285 45.8552 30.8165C44.8392 35.6044 42.4287 39.9831 38.9284 43.3987C35.4281 46.8144 30.9952 49.1136 26.1904 50.0056C21.3857 50.8976 16.4247 50.3424 11.9349 48.4102ZM23.401 4.32432L15.3362 21.68L17.1578 22.2457L19.933 13.9061L20.8817 14.2219L18.6474 20.9363L31.582 8.17915C29.2012 6.32452 26.1479 5.03656 23.6221 4.3796C23.5501 4.36085 23.4763 4.34242 23.401 4.32432ZM32.4131 8.87589L19.4076 23.2223L22.2335 25.88L35.8284 13.085C34.8033 11.5476 33.6893 10.1017 32.7472 9.1886C32.6381 9.08288 32.5267 8.97864 32.4131 8.87589ZM36.6907 14.4334L25.3266 28.7891L29.7799 32.9772L39.5512 24.0109C39.6142 22.3833 39.5069 20.6396 38.8098 18.5928C38.4557 17.553 37.6581 16.0121 36.6907 14.4334ZM39.4595 25.4518L30.4372 33.7309L33.9781 38.7603C34.5806 38.1969 35.1397 37.588 35.6646 36.9198C37.3942 34.7179 39.1484 29.8618 39.3171 27.2427C39.344 26.8242 39.3793 26.4066 39.4149 25.9861C39.4299 25.8086 39.445 25.6306 39.4595 25.4518ZM33.2227 39.4247C33.1985 39.4447 33.1743 39.4647 33.15 39.4845L21.6652 33.4144L22.6217 32.2061L29.4697 34.0941L33.2227 39.4247ZM32.2769 40.1545C30.4054 41.5023 28.1514 42.6028 25.3294 43.7375C25.0588 43.8463 24.7758 43.9415 24.483 44.0246L18.8498 36.9709L21.0337 34.2121L32.2769 40.1545ZM23.4 44.2713L18.2126 37.7759L13.4736 43.7624C13.564 43.7805 13.6121 43.7897 13.6121 43.7897C13.6121 43.7897 19.1281 45.0331 23.4 44.2713ZM12.3801 43.5331C11.8413 43.4156 11.157 43.2603 10.3911 43.0726L9.14636 39.57L15.1402 33.9288L17.5723 36.9741L12.3801 43.5331ZM9.2246 42.7769C8.36487 42.5513 7.45087 42.2937 6.55356 42.0102L8.35101 40.3185L9.2246 42.7769ZM12.8761 21.9636L9.00631 20.7621L11.5922 27.3647L13.5804 23.0862L12.8761 21.9636ZM14.2137 24.0957L13.1727 26.3358L14.6839 24.8453L14.2137 24.0957ZM15.4134 24.1259L16.4734 23.0805L14.9108 22.5953L14.7161 23.0145L15.4134 24.1259ZM17.5562 23.4167L15.6717 25.2753L12.5203 28.3835L17.9755 29.8875L21.5037 26.5668L18.4488 23.6938L17.5562 23.4167ZM18.5514 22.6783L20.6332 20.3819L18.3638 22.6201L18.5514 22.6783ZM22.2333 27.253L19.1036 30.1986L22.2493 31.0658L23.9726 28.8888L22.2333 27.253ZM24.5958 28.1017L34.134 16.0525L22.9631 26.5662L24.5958 28.1017ZM24.7035 29.5762L23.2959 31.3544L27.9623 32.641L24.7035 29.5762ZM20.7662 32.9393L21.5751 31.9175L18.251 31.001L17.8367 31.391L20.7662 32.9393ZM16.9026 30.8973L17.1228 30.69L15.8424 30.3369L16.9026 30.8973ZM10.1917 26.5311L2.58889 18.7695L7.78354 20.3824L10.1917 26.5311ZM2.07704 19.6765L7.78222 35.7312L10.9561 28.7409L2.07704 19.6765ZM8.26426 37.0877L11.6709 29.5847L14.5143 33.145L8.78077 38.5412L8.26426 37.0877ZM7.66888 38.399L6.72647 40.4746L7.98542 39.2897L7.66888 38.399ZM15.871 33.241L17.0669 32.1155L20.1348 33.737L18.2095 36.1691L15.871 33.241ZM15.2451 32.4572L16.1327 31.6218L13.4422 30.1997L15.2451 32.4572Z" fill="#DC6022"/>
</svg>
