<svg width="172" height="57" viewBox="0 0 172 57" fill="none" xmlns="http://www.w3.org/2000/svg">
<path fill-rule="evenodd" clip-rule="evenodd" d="M16.9349 51.4102C12.4451 49.4779 8.62817 46.2554 5.96673 42.1502C6.52817 43.0162 8.19725 43.835 10.1463 44.5366L12.1868 40.0425L5.37457 20.8723L5.03999 19.9308L5.99411 20.227L12.3166 22.1901L8.955 13.607L9.88604 13.2418L13.5393 22.5697L17.0601 23.6629L12.6304 16.602L13.4775 16.0701L18.5264 24.1182L19.3728 24.3809L27.3948 7.11738C23.0622 6.35362 15.5121 6.43085 13.2314 7.91445C17.3297 5.24848 22.1251 3.85973 27.0113 3.9238C31.8975 3.98787 36.655 5.5019 40.6822 8.27441C44.7094 11.0469 47.8254 14.9534 49.6362 19.4999C51.447 24.0463 51.8712 29.0285 50.8552 33.8165C49.8392 38.6044 47.4287 42.9831 43.9284 46.3987C40.4281 49.8144 35.9952 52.1136 31.1904 53.0056C26.3857 53.8976 21.4247 53.3424 16.9349 51.4102ZM28.401 7.32432L20.3362 24.68L22.1578 25.2457L24.933 16.9061L25.8817 17.2219L23.6474 23.9363L36.582 11.1792C34.2012 9.32452 31.1479 8.03656 28.6221 7.3796C28.5501 7.36085 28.4763 7.34242 28.401 7.32432ZM37.4131 11.8759L24.4076 26.2223L27.2335 28.88L40.8284 16.085C39.8033 14.5476 38.6893 13.1017 37.7472 12.1886C37.6381 12.0829 37.5267 11.9786 37.4131 11.8759ZM41.6907 17.4334L30.3266 31.7891L34.7799 35.9772L44.5512 27.0109C44.6142 25.3833 44.5069 23.6396 43.8098 21.5928C43.4557 20.553 42.6581 19.0121 41.6907 17.4334ZM44.4595 28.4518L35.4372 36.7309L38.9781 41.7603C39.5806 41.1969 40.1397 40.588 40.6646 39.9198C42.3942 37.7179 44.1484 32.8618 44.3171 30.2427C44.344 29.8242 44.3793 29.4066 44.4149 28.9861C44.4299 28.8086 44.445 28.6306 44.4595 28.4518ZM38.2227 42.4247C38.1985 42.4447 38.1743 42.4647 38.15 42.4845L26.6652 36.4144L27.6217 35.2061L34.4697 37.0941L38.2227 42.4247ZM37.2769 43.1545C35.4054 44.5023 33.1514 45.6028 30.3294 46.7375C30.0588 46.8463 29.7758 46.9415 29.483 47.0246L23.8498 39.9709L26.0337 37.2121L37.2769 43.1545ZM28.4 47.2713L23.2126 40.7759L18.4736 46.7624C18.564 46.7805 18.6121 46.7897 18.6121 46.7897C18.6121 46.7897 24.1281 48.0331 28.4 47.2713ZM17.3801 46.5331C16.8413 46.4156 16.157 46.2603 15.3911 46.0726L14.1464 42.57L20.1402 36.9288L22.5723 39.9741L17.3801 46.5331ZM14.2246 45.7769C13.3649 45.5513 12.4509 45.2937 11.5536 45.0102L13.351 43.3185L14.2246 45.7769ZM17.8761 24.9636L14.0063 23.7621L16.5922 30.3647L18.5804 26.0862L17.8761 24.9636ZM19.2137 27.0957L18.1727 29.3358L19.6839 27.8453L19.2137 27.0957ZM20.4134 27.1259L21.4734 26.0805L19.9108 25.5953L19.7161 26.0145L20.4134 27.1259ZM22.5562 26.4167L20.6717 28.2753L17.5203 31.3835L22.9755 32.8875L26.5037 29.5668L23.4488 26.6938L22.5562 26.4167ZM23.5514 25.6783L25.6332 23.3819L23.3638 25.6201L23.5514 25.6783ZM27.2333 30.253L24.1036 33.1986L27.2493 34.0658L28.9726 31.8888L27.2333 30.253ZM29.5958 31.1017L39.134 19.0525L27.9631 29.5662L29.5958 31.1017ZM29.7035 32.5762L28.2959 34.3544L32.9623 35.641L29.7035 32.5762ZM25.7662 35.9393L26.5751 34.9175L23.251 34.001L22.8367 34.391L25.7662 35.9393ZM21.9026 33.8973L22.1228 33.69L20.8424 33.3369L21.9026 33.8973ZM15.1917 29.5311L7.58889 21.7695L12.7835 23.3824L15.1917 29.5311ZM7.07704 22.6765L12.7822 38.7312L15.9561 31.7409L7.07704 22.6765ZM13.2643 40.0877L16.6709 32.5847L19.5143 36.145L13.7808 41.5412L13.2643 40.0877ZM12.6689 41.399L11.7265 43.4746L12.9854 42.2897L12.6689 41.399ZM20.871 36.241L22.0669 35.1155L25.1348 36.737L23.2095 39.1691L20.871 36.241ZM20.2451 35.4572L21.1327 34.6218L18.4422 33.1997L20.2451 35.4572Z" fill="#DC6022"/>
<path d="M79.3759 37.5041C79.3759 39.4496 78.8957 41.1326 77.9353 42.5531C76.975 43.9737 75.5809 45.0699 73.7531 45.842C71.9563 46.614 69.8032 47 67.2939 47C66.0857 47 64.9239 46.9228 63.8087 46.7684C62.7244 46.6449 61.6866 46.4441 60.6952 46.1662C59.7349 45.8883 58.8364 45.5486 58 45.1471V39.5886C59.3941 40.2062 60.9276 40.7775 62.6005 41.3025C64.2734 41.7965 65.9772 42.0436 67.7121 42.0436C69.0442 42.0436 70.1285 41.8738 70.9649 41.5341C71.8324 41.1635 72.4674 40.6694 72.8702 40.0518C73.2729 39.4033 73.4743 38.6621 73.4743 37.8283C73.4743 36.9019 73.2109 36.1144 72.6843 35.4659C72.1576 34.8174 71.3831 34.2153 70.3608 33.6594C69.3385 33.1035 68.0683 32.5168 66.5503 31.8992C65.528 31.4669 64.5212 30.9882 63.5298 30.4632C62.5695 29.9074 61.7021 29.2434 60.9276 28.4714C60.1531 27.6994 59.5335 26.7884 59.0688 25.7384C58.6041 24.6885 58.3718 23.4532 58.3718 22.0327C58.3718 20.149 58.821 18.5277 59.7194 17.1689C60.6487 15.8102 61.9344 14.7757 63.5763 14.0654C65.2492 13.3551 67.1854 13 69.385 13C71.1508 13 72.8082 13.1853 74.3572 13.5559C75.9062 13.9264 77.4396 14.4514 78.9576 15.1308L77.0524 19.9019C75.6893 19.3152 74.3727 18.852 73.1025 18.5123C71.8324 18.1726 70.5312 18.0027 69.1991 18.0027C68.1458 18.0027 67.2474 18.1726 66.5039 18.5123C65.7604 18.8211 65.2027 19.2688 64.831 19.8556C64.4592 20.4423 64.2734 21.1217 64.2734 21.8937C64.2734 22.7893 64.5057 23.5459 64.9704 24.1635C65.4351 24.7811 66.1476 25.3678 67.108 25.9237C68.0993 26.4487 69.3695 27.0509 70.9185 27.7302C72.7153 28.5023 74.2333 29.3052 75.4724 30.139C76.7116 30.9728 77.672 31.9764 78.3535 33.1499C79.0351 34.3233 79.3759 35.7748 79.3759 37.5041Z" fill="white"/>
<path d="M95.2128 20.9673C97.4743 20.9673 99.4105 21.4305 101.021 22.3569C102.663 23.2525 103.934 24.5495 104.832 26.248C105.73 27.9155 106.18 29.9537 106.18 32.3624V35.327H89.5436C89.6055 37.6122 90.2406 39.3878 91.4488 40.654C92.657 41.8892 94.3299 42.5068 96.4675 42.5068C98.1094 42.5068 99.5654 42.3524 100.836 42.0436C102.137 41.7039 103.469 41.2253 104.832 40.6076V45.2861C103.593 45.8728 102.307 46.3052 100.975 46.5831C99.6429 46.861 98.0474 47 96.1887 47C93.7413 47 91.5572 46.5368 89.6365 45.6104C87.7467 44.653 86.2597 43.2171 85.1754 41.3025C84.1221 39.3878 83.5955 37.01 83.5955 34.1689C83.5955 31.297 84.0757 28.8883 85.036 26.9428C86.0274 24.9664 87.3905 23.4841 89.1253 22.4959C90.8602 21.4768 92.8893 20.9673 95.2128 20.9673ZM95.2128 25.2752C93.6638 25.2752 92.3937 25.7847 91.4023 26.8038C90.442 27.792 89.8688 29.2743 89.683 31.2507H100.51C100.51 30.0772 100.309 29.0427 99.9062 28.1471C99.5344 27.2516 98.9613 26.5568 98.1868 26.0627C97.4124 25.5377 96.421 25.2752 95.2128 25.2752Z" fill="white"/>
<path d="M125.281 20.9673C125.653 20.9673 126.086 20.9827 126.582 21.0136C127.078 21.0445 127.496 21.1063 127.837 21.1989L127.326 26.6185C127.047 26.5568 126.675 26.5104 126.21 26.4796C125.777 26.4178 125.389 26.3869 125.049 26.3869C124.119 26.3869 123.221 26.5413 122.353 26.8501C121.517 27.1281 120.758 27.5604 120.076 28.1471C119.426 28.703 118.899 29.4287 118.496 30.3243C118.125 31.2198 117.939 32.2852 117.939 33.5204V46.5368H112.084V21.4305H116.591L117.428 25.7847H117.706C118.202 24.8892 118.822 24.0863 119.565 23.376C120.309 22.6349 121.161 22.0481 122.121 21.6158C123.112 21.1835 124.166 20.9673 125.281 20.9673Z" fill="white"/>
<path d="M145.702 20.9673C146.074 20.9673 146.507 20.9827 147.003 21.0136C147.499 21.0445 147.917 21.1063 148.258 21.1989L147.747 26.6185C147.468 26.5568 147.096 26.5104 146.631 26.4796C146.198 26.4178 145.81 26.3869 145.47 26.3869C144.54 26.3869 143.642 26.5413 142.774 26.8501C141.938 27.1281 141.179 27.5604 140.497 28.1471C139.847 28.703 139.32 29.4287 138.918 30.3243C138.546 31.2198 138.36 32.2852 138.36 33.5204V46.5368H132.505V21.4305H137.012L137.849 25.7847H138.128C138.623 24.8892 139.243 24.0863 139.986 23.376C140.73 22.6349 141.582 22.0481 142.542 21.6158C143.533 21.1835 144.587 20.9673 145.702 20.9673Z" fill="white"/>
<path d="M162.056 20.9673C165.308 20.9673 167.771 21.6776 169.444 23.0981C171.148 24.4877 172 26.6803 172 29.6757V46.5368H167.864L166.703 43.0627H166.517C165.804 43.9582 165.061 44.7148 164.286 45.3324C163.543 45.9192 162.675 46.3361 161.684 46.5831C160.723 46.861 159.546 47 158.152 47C156.665 47 155.318 46.7221 154.109 46.1662C152.932 45.6104 152.003 44.7611 151.321 43.6185C150.64 42.4451 150.299 40.9782 150.299 39.218C150.299 36.624 151.244 34.6785 153.133 33.3815C155.054 32.0536 157.951 31.3279 161.823 31.2044L166.191 31.0654V29.8147C166.191 28.2089 165.804 27.0663 165.03 26.3869C164.255 25.7075 163.171 25.3678 161.777 25.3678C160.507 25.3678 159.283 25.5531 158.106 25.9237C156.928 26.2943 155.782 26.7266 154.667 27.2207L152.808 23.1444C154.047 22.4959 155.457 21.9709 157.037 21.5695C158.648 21.168 160.321 20.9673 162.056 20.9673ZM163.124 34.7711C160.553 34.8638 158.772 35.3115 157.78 36.1144C156.789 36.8865 156.293 37.9364 156.293 39.2643C156.293 40.4378 156.65 41.287 157.362 41.812C158.075 42.337 158.989 42.5995 160.104 42.5995C161.808 42.5995 163.248 42.1208 164.426 41.1635C165.603 40.1753 166.191 38.7239 166.191 36.8093V34.6785L163.124 34.7711Z" fill="white"/>
</svg>
