<svg width="511" height="467" viewBox="0 0 511 467" fill="none" xmlns="http://www.w3.org/2000/svg">
<path d="M495 22L28.8313 146.792C26.8828 147.314 26.8442 150.065 28.7773 150.641L488.942 287.79C490.814 288.348 490.858 290.983 489.006 291.603L22 448" stroke="#151515" stroke-width="4" stroke-linecap="round" stroke-linejoin="round" stroke-dasharray="15 15"/>
<path d="M32 123L36.9393 138.202H52.9232L39.992 147.597L44.9313 162.798L32 153.403L19.0687 162.798L24.008 147.597L11.0768 138.202H27.0607L32 123Z" fill="#FFD600"/>
<path d="M32 123L36.9393 138.202H52.9232L39.992 147.597L44.9313 162.798L32 153.403L19.0687 162.798L24.008 147.597L11.0768 138.202H27.0607L32 123Z" fill="#FFD600"/>
<path d="M489 268L493.939 283.202H509.923L496.992 292.597L501.931 307.798L489 298.403L476.069 307.798L481.008 292.597L468.077 283.202H484.061L489 268Z" fill="#FFD600"/>
<path d="M489 268L493.939 283.202H509.923L496.992 292.597L501.931 307.798L489 298.403L476.069 307.798L481.008 292.597L468.077 283.202H484.061L489 268Z" fill="#FFD600"/>
<path d="M489 0L493.939 15.2016H509.923L496.992 24.5967L501.931 39.7984L489 30.4033L476.069 39.7984L481.008 24.5967L468.077 15.2016H484.061L489 0Z" fill="#FFD600"/>
<path d="M489 0L493.939 15.2016H509.923L496.992 24.5967L501.931 39.7984L489 30.4033L476.069 39.7984L481.008 24.5967L468.077 15.2016H484.061L489 0Z" fill="#FFD600"/>
<path d="M22 423L26.9393 438.202H42.9232L29.992 447.597L34.9313 462.798L22 453.403L9.06872 462.798L14.008 447.597L1.07676 438.202H17.0607L22 423Z" fill="#FFD600"/>
<path d="M22 423L26.9393 438.202H42.9232L29.992 447.597L34.9313 462.798L22 453.403L9.06872 462.798L14.008 447.597L1.07676 438.202H17.0607L22 423Z" fill="#FFD600"/>
</svg>
